<?xml version="1.0" encoding="UTF-8" standalone="no"?>
<!-- Created with Inkscape (http://www.inkscape.org/) -->

<svg
   xmlns:dc="http://purl.org/dc/elements/1.1/"
   xmlns:cc="http://creativecommons.org/ns#"
   xmlns:rdf="http://www.w3.org/1999/02/22-rdf-syntax-ns#"
   xmlns:svg="http://www.w3.org/2000/svg"
   xmlns="http://www.w3.org/2000/svg"
   version="1.2"
   width="100"
   height="100"
   id="svg2">
  <metadata
     id="metadata17">
    <rdf:RDF>
      <cc:Work
         rdf:about="">
        <dc:format>image/svg+xml</dc:format>
        <dc:type
           rdf:resource="http://purl.org/dc/dcmitype/StillImage" />
        <dc:title></dc:title>
      </cc:Work>
    </rdf:RDF>
  </metadata>
  <defs
     id="defs15" />
  <g
     id="g4">
    <title
       id="title6">Layer 1</title>
  </g>
  <g
     id="g8">
    <title
       id="title10">Layer 2</title>
    <path
       d="m 6,0 88,0 c 3.324,0 6,2.676 6,6 l 0,88 c 0,3.324 -2.676,6 -6,6 L 6,100 C 2.676,100 0,97.324 0,94 L 0,6 C 0,2.676 2.676,0 6,0 z"
       id="svg_10"
       style="fill:#edc53f" />
  </g>
  <flowRoot
     transform="translate(1.4981076,29.812341)"
     id="flowRoot2994"
     xml:space="preserve"
     style="font-size:40px;font-style:normal;font-weight:normal;line-height:125%;letter-spacing:0px;word-spacing:0px;fill:#ffffff;fill-opacity:1;stroke:none;font-family:Sans"><flowRegion
       id="flowRegion2993"><rect
         width="102.54237"
         height="103.81356"
         x="-1.059322"
         y="-1.4830509"
         id="rect2995" /></flowRegion><flowPara
       id="flowPara2997" /></flowRoot>  <g
     id="text2996"
     style="font-size:35px;font-style:normal;font-variant:normal;font-weight:normal;font-stretch:normal;line-height:125%;letter-spacing:0px;word-spacing:0px;fill:#ffffff;fill-opacity:1;stroke:none;font-family:Clear Sans;-inkscape-font-specification:Clear Sans">
    <path
       d="m 16.678197,59.533897 0,-16.571807 -5.614013,0 0,-2.819825 c 1.71325,-0.100383 2.93179,-0.275554 3.655624,-0.525512 0.723817,-0.249919 1.286179,-0.626963 1.687088,-1.131134 0.400889,-0.504129 0.786122,-1.446206 1.155701,-2.826233 l 2.899933,0 0,23.874511 z"
       id="path3769"
       style="font-weight:bold;fill:#ffffff" />
    <path
       d="m 47.86289,47.630821 c -2e-5,4.209806 -0.721353,7.332616 -2.164002,9.368439 -1.442684,2.035828 -3.683943,3.053741 -6.723785,3.053741 -3.044136,0 -5.280946,-1.011148 -6.710434,-3.033447 -1.429497,-2.022294 -2.144243,-5.140831 -2.144241,-9.355621 -2e-6,-4.211206 0.715456,-7.328854 2.146377,-9.352951 1.430913,-2.024055 3.66701,-3.036094 6.708298,-3.036118 3.061916,2.4e-5 5.308694,1.006722 6.740341,3.020096 1.431611,2.013416 2.147426,5.125367 2.147446,9.335861 z m -4.019318,0 c -1.6e-5,-3.170151 -0.397888,-5.461256 -1.193619,-6.873321 -0.795759,-1.412028 -2.020708,-2.118052 -3.67485,-2.118073 -1.63565,2.1e-5 -2.8533,0.709961 -3.652954,2.129822 -0.799669,1.419898 -1.1995,3.718124 -1.199494,6.894684 -6e-6,3.180144 0.399291,5.479259 1.197892,6.897354 0.798586,1.418104 2.01677,2.127154 3.654556,2.127151 1.655566,3e-6 2.880871,-0.710649 3.675918,-2.131958 0.795019,-1.421299 1.192535,-3.729849 1.192551,-6.925659 z"
       id="path3771"
       style="font-weight:bold;fill:#ffffff" />
    <path
       d="m 52.025335,59.533897 0,-3.755493 c 2.782791,-2.362665 4.796542,-4.135378 6.04126,-5.318146 1.2447,-1.182749 2.256026,-2.214191 3.033981,-3.094329 0.777932,-0.880114 1.381238,-1.74048 1.809921,-2.581101 0.428657,-0.840591 0.642992,-1.74653 0.643006,-2.717819 -1.4e-5,-1.050295 -0.344837,-1.889833 -1.03447,-2.518616 -0.689659,-0.628743 -1.610551,-0.943125 -2.76268,-0.943146 -1.110137,2.1e-5 -2.015542,0.244086 -2.716217,0.732193 -0.70069,0.488149 -1.368618,1.193638 -2.003784,2.116471 l -3.078308,-1.894837 c 0.865882,-1.621377 1.961589,-2.757494 3.287124,-3.408355 1.325524,-0.650814 2.874112,-0.976233 4.645767,-0.976258 2.338448,2.5e-5 4.203376,0.588912 5.594788,1.766663 1.391381,1.177796 2.087079,2.830525 2.087097,4.958191 -1.8e-5,1.051042 -0.151512,2.045278 -0.454483,2.982712 -0.303006,0.937463 -0.776714,1.83005 -1.421127,2.677765 -0.644445,0.847738 -1.484517,1.792129 -2.520218,2.833175 -1.035728,1.041065 -3.3352,2.921658 -6.898422,5.641785 l 12.04834,0 0,3.499145 z"
       id="path3773"
       style="font-weight:bold;fill:#ffffff" />
    <path
       d="m 86.837347,54.389854 0,5.144043 -3.734131,0 0,-5.144043 -11.930847,0 0,-3.435058 12.249145,-15.29541 3.415833,0 0,15.365905 3.201141,0 0,3.364563 z m -3.734131,-13.622741 -8.128357,10.258178 8.128357,0 z"
       id="path3775"
       style="font-weight:bold;fill:#ffffff" />
  </g>
</svg>
