<?xml version="1.0" encoding="UTF-8" standalone="no"?>
<!-- Created with Inkscape (http://www.inkscape.org/) -->

<svg
   xmlns:dc="http://purl.org/dc/elements/1.1/"
   xmlns:cc="http://creativecommons.org/ns#"
   xmlns:rdf="http://www.w3.org/1999/02/22-rdf-syntax-ns#"
   xmlns:svg="http://www.w3.org/2000/svg"
   xmlns="http://www.w3.org/2000/svg"
   version="1.2"
   width="100"
   height="100"
   id="svg2">
  <metadata
     id="metadata17">
    <rdf:RDF>
      <cc:Work
         rdf:about="">
        <dc:format>image/svg+xml</dc:format>
        <dc:type
           rdf:resource="http://purl.org/dc/dcmitype/StillImage" />
        <dc:title></dc:title>
      </cc:Work>
    </rdf:RDF>
  </metadata>
  <defs
     id="defs15" />
  <g
     id="g4">
    <title
       id="title6">Layer 1</title>
  </g>
  <g
     id="g8">
    <title
       id="title10">Layer 2</title>
    <path
       d="m 6,0 88,0 c 3.324,0 6,2.676 6,6 l 0,88 c 0,3.324 -2.676,6 -6,6 L 6,100 C 2.676,100 0,97.324 0,94 L 0,6 C 0,2.676 2.676,0 6,0 z"
       id="svg_10"
       style="fill:#edcf72" />
  </g>
  <flowRoot
     id="flowRoot3038"
     xml:space="preserve"
     style="font-size:40px;font-style:normal;font-weight:normal;line-height:125%;letter-spacing:0px;word-spacing:0px;fill:#000000;fill-opacity:1;stroke:none;font-family:Sans"><flowRegion
       id="flowRegion3040"><rect
         width="50"
         height="50"
         x="0"
         y="0"
         id="rect3042" /></flowRegion><flowPara
       id="flowPara3044" /></flowRoot>  <g
     id="text2995"
     style="font-size:55px;font-style:normal;font-variant:normal;font-weight:normal;font-stretch:normal;line-height:125%;letter-spacing:0px;word-spacing:0px;fill:#ffffff;fill-opacity:1;stroke:none;font-family:Clear Sans;-inkscape-font-specification:Clear Sans">
    <path
       d="m 21.74606,62.288136 0,-21.306611 -7.218017,0 0,-3.625488 c 2.20275,-0.129064 3.769445,-0.354284 4.700088,-0.675659 0.930622,-0.321324 1.653659,-0.806095 2.169113,-1.454315 0.515429,-0.648166 1.010729,-1.859407 1.485901,-3.633728 l 3.728485,0 0,30.695801 z"
       id="path2994"
       style="font-size:45px;font-weight:bold;fill:#ffffff" />
    <path
       d="m 39.331052,62.288136 0,-4.828492 c 3.577874,-3.037712 6.166983,-5.316915 7.767334,-6.837616 1.600329,-1.520677 2.900606,-2.846817 3.900833,-3.978424 1.000198,-1.131575 1.775878,-2.23776 2.327042,-3.318557 0.551129,-1.08076 0.826703,-2.245539 0.826721,-3.494339 -1.8e-5,-1.350379 -0.443362,-2.429785 -1.330033,-3.238221 -0.886703,-0.808384 -2.070708,-1.212589 -3.552017,-1.212616 -1.427318,2.7e-5 -2.59141,0.313824 -3.492279,0.941391 -0.900887,0.62762 -1.759651,1.534678 -2.576294,2.721177 L 39.244534,36.60622 c 1.113278,-2.084628 2.522044,-3.54535 4.226304,-4.382171 1.704245,-0.836761 3.695286,-1.255157 5.973129,-1.255188 3.006576,3.1e-5 5.404339,0.757171 7.193298,2.271423 1.788919,1.51431 2.683388,3.639247 2.683411,6.374817 -2.3e-5,1.35134 -0.194801,2.629643 -0.584335,3.834915 -0.389579,1.205309 -0.998633,2.352922 -1.827164,3.442841 -0.828572,1.089949 -1.908664,2.304166 -3.24028,3.642654 -1.331651,1.338511 -4.288115,3.756417 -8.8694,7.253723 l 15.490722,0 0,4.498902 z"
       id="path2996"
       style="font-size:45px;font-weight:bold;fill:#ffffff" />
    <path
       d="m 86.739804,54.178852 c -2.4e-5,2.926031 -0.99337,5.113223 -2.980041,6.561585 -1.986714,1.448364 -4.622972,2.172545 -7.908783,2.172546 -3.573313,-10e-7 -6.288765,-0.746841 -8.146362,-2.240524 -1.857609,-1.49368 -2.78641,-3.658213 -2.786408,-6.493607 -2e-6,-4.026477 2.147365,-6.763901 6.442108,-8.21228 -1.531684,-0.542891 -2.654806,-1.129743 -3.369369,-1.760559 -0.714574,-0.63078 -1.29044,-1.36755 -1.7276,-2.210312 -0.437168,-0.842722 -0.65575,-1.829888 -0.655747,-2.961502 -3e-6,-2.543309 0.876156,-4.523364 2.628479,-5.940171 1.752312,-1.416747 4.290609,-2.125136 7.614899,-2.125167 3.259261,3.1e-5 5.773983,0.686447 7.544174,2.05925 1.770149,1.372861 2.655235,3.360697 2.655258,5.963516 -2.3e-5,1.094077 -0.231652,2.084906 -0.694885,2.972488 -0.463279,0.887623 -1.069358,1.660785 -1.818237,2.319489 -0.748922,0.658739 -1.842976,1.232087 -3.282166,1.720047 2.159709,0.769974 3.78042,1.835875 4.862137,3.197708 1.081672,1.361858 1.622519,3.021021 1.622543,4.977493 z M 81.098325,39.076771 c -1.9e-5,-1.221289 -0.430316,-2.203649 -1.290894,-2.947083 -0.860612,-0.743381 -2.179428,-1.115085 -3.956451,-1.115112 -1.894238,2.7e-5 -3.249446,0.369442 -4.065628,1.108246 -0.816201,0.738856 -1.224297,1.680475 -1.224289,2.824859 -8e-6,0.69857 0.159293,1.280616 0.477905,1.74614 0.318595,0.465567 0.848456,0.94988 1.589584,1.452942 0.741109,0.503102 1.817539,1.099796 3.229294,1.790085 1.615891,-0.689373 2.893279,-1.416759 3.832169,-2.18216 0.938855,-0.765359 1.408291,-1.657998 1.40831,-2.677917 z m 0.709991,15.102081 c -1.9e-5,-0.813895 -0.18404,-1.54334 -0.552063,-2.188339 -0.36806,-0.644978 -0.93912,-1.255177 -1.71318,-1.830597 -0.774095,-0.575396 -2.008911,-1.265017 -3.704453,-2.068863 -1.660778,0.722365 -2.866755,1.363462 -3.617935,1.923294 -0.751199,0.559857 -1.334161,1.182186 -1.748886,1.866989 -0.414742,0.684824 -0.622108,1.465311 -0.622101,2.341461 -7e-6,1.401679 0.477669,2.515417 1.433029,3.341217 0.955343,0.82581 2.478093,1.238712 4.568253,1.238709 2.103866,3e-6 3.622725,-0.427776 4.556579,-1.283341 0.933819,-0.855554 1.400738,-1.969063 1.400757,-3.34053 z"
       id="path2998"
       style="font-size:45px;font-weight:bold;fill:#ffffff" />
  </g>
</svg>
