<?xml version="1.0" encoding="UTF-8" standalone="no"?>
<!-- Created with Inkscape (http://www.inkscape.org/) -->

<svg
   xmlns:dc="http://purl.org/dc/elements/1.1/"
   xmlns:cc="http://creativecommons.org/ns#"
   xmlns:rdf="http://www.w3.org/1999/02/22-rdf-syntax-ns#"
   xmlns:svg="http://www.w3.org/2000/svg"
   xmlns="http://www.w3.org/2000/svg"
   version="1.2"
   width="100"
   height="100"
   id="svg2">
  <metadata
     id="metadata17">
    <rdf:RDF>
      <cc:Work
         rdf:about="">
        <dc:format>image/svg+xml</dc:format>
        <dc:type
           rdf:resource="http://purl.org/dc/dcmitype/StillImage" />
        <dc:title></dc:title>
      </cc:Work>
    </rdf:RDF>
  </metadata>
  <defs
     id="defs15" />
  <g
     id="g4">
    <title
       id="title6">Layer 1</title>
  </g>
  <g
     id="g8">
    <title
       id="title10">Layer 2</title>
    <path
       d="m 6,0 88,0 c 3.324,0 6,2.676 6,6 l 0,88 c 0,3.324 -2.676,6 -6,6 L 6,100 C 2.676,100 0,97.324 0,94 L 0,6 C 0,2.676 2.676,0 6,0 z"
       id="svg_10"
       style="fill:#f59563" />
  </g>
  <g
     id="text2990"
     style="font-size:55px;font-style:normal;font-variant:normal;font-weight:normal;font-stretch:normal;line-height:125%;letter-spacing:0px;word-spacing:0px;fill:#ffffff;fill-opacity:1;stroke:none;font-family:Clear Sans;-inkscape-font-specification:Clear Sans">
    <path
       d="m 31.201778,65.992958 0,-26.041412 -8.822021,0 0,-4.431153 c 2.692251,-0.157745 4.6071,-0.433013 5.744553,-0.825805 1.137426,-0.39273 2.021138,-0.985228 2.651138,-1.777497 0.629968,-0.792202 1.235334,-2.272608 1.816101,-4.441223 l 4.557037,0 0,37.51709 z"
       id="path3763"
       style="font-weight:bold;fill:#ffffff" />
    <path
       d="m 65.581814,66.75666 c -4.635937,0 -8.013009,-1.611886 -10.131226,-4.835662 -2.118229,-3.223768 -3.177341,-7.89102 -3.177337,-14.00177 -4e-6,-6.35577 1.310038,-11.312278 3.93013,-14.869538 2.620076,-3.557194 6.272696,-5.335807 10.95787,-5.335846 2.141703,3.9e-5 4.007038,0.309436 5.596008,0.928192 1.588924,0.618832 3.097864,1.63822 4.526825,3.058167 l -3.566742,4.353943 c -1.322655,-1.07195 -2.436876,-1.8488 -3.342666,-2.330551 -0.905833,-0.481688 -1.976974,-0.722547 -3.213425,-0.72258 -4.97387,3.3e-5 -7.778585,3.793364 -8.414154,11.380005 0.399465,-0.666889 1.397592,-1.303307 2.994385,-1.909256 1.596767,-0.605903 3.324467,-0.908866 5.183105,-0.90889 3.510212,2.4e-5 6.329195,0.998991 8.456955,2.996902 2.127708,1.997955 3.191575,5.022269 3.191605,9.072953 -3e-5,4.209602 -1.153415,7.44932 -3.460159,9.719162 -2.306797,2.269847 -5.483852,3.404769 -9.531174,3.404769 z m 0.209808,-5.28717 c 2.233461,5e-6 3.909129,-0.643127 5.027008,-1.929398 1.117836,-1.286257 1.676765,-3.193832 1.676789,-5.722732 -2.4e-5,-4.609053 -2.269868,-6.913586 -6.80954,-6.913605 -1.28684,1.9e-5 -2.596043,0.233046 -3.927613,0.699082 -1.331595,0.466072 -2.35322,0.920656 -3.06488,1.363754 -10e-6,4.404309 0.585775,7.589197 1.757355,9.554672 1.171557,1.96549 2.951849,2.948232 5.340881,2.948227 z"
       id="path3765"
       style="font-weight:bold;fill:#ffffff" />
  </g>
</svg>
