<?xml version="1.0" encoding="UTF-8" standalone="no"?>
<!-- Created with Inkscape (http://www.inkscape.org/) -->

<svg
   xmlns:dc="http://purl.org/dc/elements/1.1/"
   xmlns:cc="http://creativecommons.org/ns#"
   xmlns:rdf="http://www.w3.org/1999/02/22-rdf-syntax-ns#"
   xmlns:svg="http://www.w3.org/2000/svg"
   xmlns="http://www.w3.org/2000/svg"
   version="1.2"
   width="100"
   height="100"
   id="svg2">
  <metadata
     id="metadata17">
    <rdf:RDF>
      <cc:Work
         rdf:about="">
        <dc:format>image/svg+xml</dc:format>
        <dc:type
           rdf:resource="http://purl.org/dc/dcmitype/StillImage" />
        <dc:title></dc:title>
      </cc:Work>
    </rdf:RDF>
  </metadata>
  <defs
     id="defs15" />
  <g
     id="g4">
    <title
       id="title6">Layer 1</title>
  </g>
  <g
     id="g8">
    <title
       id="title10">Layer 2</title>
    <path
       d="m 6,0 88,0 c 3.324,0 6,2.676 6,6 l 0,88 c 0,3.324 -2.676,6 -6,6 L 6,100 C 2.676,100 0,97.324 0,94 L 0,6 C 0,2.676 2.676,0 6,0 z"
       id="svg_10"
       style="fill:#edc22e" />
  </g>
  <flowRoot
     transform="translate(1.4981076,29.812341)"
     id="flowRoot2991"
     xml:space="preserve"
     style="font-size:40px;font-style:normal;font-weight:normal;line-height:125%;letter-spacing:0px;word-spacing:0px;fill:#000000;fill-opacity:1;stroke:none;font-family:Sans"><flowRegion
       id="flowRegion2993"><rect
         width="102.54237"
         height="103.81356"
         x="-1.059322"
         y="-1.4830509"
         id="rect2995" /></flowRegion><flowPara
       id="flowPara2997" /></flowRoot>  <g
     id="text2996"
     style="font-size:55px;font-style:normal;font-variant:normal;font-weight:normal;font-stretch:normal;line-height:125%;letter-spacing:0px;word-spacing:0px;fill:#ffffff;fill-opacity:1;stroke:none;font-family:Clear Sans;-inkscape-font-specification:Clear Sans">
    <path
       d="m 10.380406,60.805084 0,-3.755493 c 2.782791,-2.362665 4.796543,-4.135378 6.04126,-5.318146 1.244701,-1.182749 2.256027,-2.214191 3.033981,-3.09433 0.777932,-0.880113 1.381239,-1.740479 1.809922,-2.5811 0.428656,-0.840591 0.642991,-1.74653 0.643005,-2.717819 -1.4e-5,-1.050295 -0.344837,-1.889833 -1.03447,-2.518616 -0.689658,-0.628743 -1.61055,-0.943125 -2.76268,-0.943146 -1.110136,2.1e-5 -2.015541,0.244085 -2.716217,0.732193 -0.70069,0.488149 -1.368617,1.193638 -2.003784,2.116471 l -3.078308,-1.894837 c 0.865882,-1.621377 1.96159,-2.757495 3.287125,-3.408355 1.325524,-0.650815 2.874111,-0.976233 4.645767,-0.976258 2.338448,2.5e-5 4.203375,0.588911 5.594788,1.766663 1.39138,1.177796 2.087079,2.830525 2.087097,4.958191 -1.8e-5,1.051042 -0.151512,2.045278 -0.454483,2.982712 -0.303006,0.937462 -0.776715,1.83005 -1.421128,2.677764 -0.644445,0.847739 -1.484516,1.79213 -2.520218,2.833176 -1.035728,1.041064 -3.335199,2.921657 -6.898422,5.641785 l 12.04834,0 0,3.499145 z"
       id="path2994"
       style="font-size:35px;font-weight:bold;fill:#ffffff" />
    <path
       d="m 48.258977,48.902008 c -2e-5,4.209806 -0.721353,7.332616 -2.164002,9.368439 -1.442683,2.035828 -3.683943,3.053741 -6.723785,3.053741 -3.044136,0 -5.280945,-1.011148 -6.710434,-3.033447 -1.429497,-2.022294 -2.144243,-5.140831 -2.144241,-9.355621 -2e-6,-4.211207 0.715456,-7.328854 2.146377,-9.352951 1.430913,-2.024056 3.66701,-3.036094 6.708298,-3.036118 3.061916,2.4e-5 5.308695,1.006722 6.740341,3.020096 1.431612,2.013416 2.147426,5.125367 2.147446,9.335861 z m -4.019318,0 c -1.6e-5,-3.170151 -0.397888,-5.461256 -1.193618,-6.873321 -0.79576,-1.412029 -2.020709,-2.118052 -3.674851,-2.118073 -1.63565,2.1e-5 -2.8533,0.709961 -3.652954,2.129822 -0.799669,1.419898 -1.1995,3.718124 -1.199493,6.894684 -7e-6,3.180143 0.39929,5.479259 1.197891,6.897354 0.798586,1.418104 2.01677,2.127154 3.654556,2.127151 1.655566,3e-6 2.880871,-0.710649 3.675919,-2.131958 0.795018,-1.421299 1.192534,-3.729849 1.19255,-6.925659 z"
       id="path2996"
       style="font-size:35px;font-weight:bold;fill:#ffffff" />
    <path
       d="m 66.86234,55.661041 0,5.144043 -3.734131,0 0,-5.144043 -11.930847,0 0,-3.435058 12.249145,-15.29541 3.415833,0 0,15.365905 3.201141,0 0,3.364563 z M 63.128209,42.0383 l -8.128357,10.258178 8.128357,0 z"
       id="path2998"
       style="font-size:35px;font-weight:bold;fill:#ffffff" />
    <path
       d="m 90.593724,54.497864 c -1.9e-5,2.275801 -0.772621,3.976951 -2.31781,5.103454 -1.545221,1.126506 -3.595645,1.689758 -6.151275,1.689759 -2.779244,-1e-6 -4.891262,-0.580877 -6.33606,-1.74263 -1.444806,-1.161751 -2.167208,-2.845277 -2.167206,-5.050583 -2e-6,-3.131705 1.670173,-5.260812 5.010529,-6.387329 -1.19131,-0.422249 -2.06485,-0.87869 -2.620621,-1.369324 -0.55578,-0.490606 -1.003676,-1.06365 -1.343689,-1.719132 -0.340019,-0.65545 -0.510027,-1.423246 -0.510025,-2.30339 -2e-6,-1.978129 0.681454,-3.518172 2.044373,-4.620132 1.362909,-1.101916 3.33714,-1.652884 5.922699,-1.652909 2.53498,2.5e-5 4.490875,0.533904 5.867691,1.601639 1.376783,1.067781 2.065182,2.613876 2.0652,4.63829 -1.8e-5,0.850949 -0.180173,1.621594 -0.540466,2.311936 -0.360328,0.690373 -0.831723,1.291722 -1.414184,1.804046 -0.582495,0.512353 -1.433426,0.958291 -2.552796,1.337815 1.679774,0.598868 2.940327,1.427903 3.781662,2.487106 0.8413,1.059223 1.261959,2.349683 1.261978,3.871384 z M 86.205907,42.751801 c -1.5e-5,-0.949892 -0.33469,-1.71395 -1.004028,-2.292176 -0.669365,-0.578185 -1.695111,-0.867288 -3.07724,-0.867309 -1.473296,2.1e-5 -2.527347,0.287344 -3.162156,0.861969 -0.634823,0.574665 -0.952231,1.307036 -0.952224,2.197113 -7e-6,0.543332 0.123895,0.996034 0.371704,1.358108 0.247796,0.362108 0.65991,0.738796 1.236343,1.130066 0.576418,0.391302 1.413641,0.855397 2.511673,1.392288 1.256804,-0.536179 2.250328,-1.101923 2.980576,-1.697235 0.73022,-0.595279 1.095337,-1.289554 1.095352,-2.082824 z m 0.552215,11.746063 c -1.5e-5,-0.63303 -0.143142,-1.200376 -0.429382,-1.702042 -0.286269,-0.501649 -0.730427,-0.976248 -1.332474,-1.423797 -0.602073,-0.447531 -1.562486,-0.983902 -2.88124,-1.609116 -1.291717,0.561839 -2.229699,1.06047 -2.81395,1.495895 -0.584266,0.435444 -1.037681,0.919478 -1.360245,1.452103 -0.322576,0.532641 -0.483862,1.139686 -0.483856,1.821136 -6e-6,1.090195 0.37152,1.956436 1.114578,2.598725 0.743045,0.642296 1.927405,0.963442 3.553086,0.96344 1.63634,2e-6 2.817674,-0.332715 3.544006,-0.998154 0.726304,-0.665431 1.089462,-1.531494 1.089477,-2.59819 z"
       id="path3000"
       style="font-size:35px;font-weight:bold;fill:#ffffff" />
  </g>
</svg>
