<?xml version="1.0" encoding="UTF-8" standalone="no"?>
<!-- Created with Inkscape (http://www.inkscape.org/) -->

<svg
   xmlns:dc="http://purl.org/dc/elements/1.1/"
   xmlns:cc="http://creativecommons.org/ns#"
   xmlns:rdf="http://www.w3.org/1999/02/22-rdf-syntax-ns#"
   xmlns:svg="http://www.w3.org/2000/svg"
   xmlns="http://www.w3.org/2000/svg"
   version="1.2"
   width="100"
   height="100"
   id="svg2">
  <metadata
     id="metadata17">
    <rdf:RDF>
      <cc:Work
         rdf:about="">
        <dc:format>image/svg+xml</dc:format>
        <dc:type
           rdf:resource="http://purl.org/dc/dcmitype/StillImage" />
        <dc:title></dc:title>
      </cc:Work>
    </rdf:RDF>
  </metadata>
  <defs
     id="defs15" />
  <g
     id="g4">
    <title
       id="title6">Layer 1</title>
  </g>
  <g
     id="g8">
    <title
       id="title10">Layer 2</title>
    <path
       d="m 6,0 88,0 c 3.324,0 6,2.676 6,6 l 0,88 c 0,3.324 -2.676,6 -6,6 L 6,100 C 2.676,100 0,97.324 0,94 L 0,6 C 0,2.676 2.676,0 6,0 z"
       id="svg_10"
       style="fill:#edcc61" />
  </g>
  <g
     id="text2991"
     style="font-size:45px;font-style:normal;font-variant:normal;font-weight:normal;font-stretch:normal;line-height:125%;letter-spacing:0px;word-spacing:0px;fill:#ffffff;fill-opacity:1;stroke:none;font-family:Clear Sans;-inkscape-font-specification:Clear Sans">
    <path
       d="m 14.859555,62.923729 0,-4.828491 c 3.577875,-3.037712 6.166983,-5.316915 7.767334,-6.837616 1.60033,-1.520678 2.900606,-2.846818 3.900833,-3.978424 1.000198,-1.131575 1.775878,-2.23776 2.327042,-3.318558 0.55113,-1.08076 0.826703,-2.245539 0.826721,-3.494339 -1.8e-5,-1.350379 -0.443361,-2.429785 -1.330032,-3.23822 -0.886704,-0.808384 -2.070709,-1.212589 -3.552017,-1.212616 -1.427319,2.7e-5 -2.591411,0.313823 -3.492279,0.941391 -0.900888,0.627619 -1.759652,1.534677 -2.576294,2.721176 l -3.957825,-2.436218 c 1.113277,-2.084628 2.522043,-3.545351 4.226303,-4.382172 1.704245,-0.836761 3.695286,-1.255157 5.973129,-1.255188 3.006576,3.1e-5 5.40434,0.757172 7.193299,2.271423 1.788918,1.51431 2.683387,3.639247 2.68341,6.374817 -2.3e-5,1.35134 -0.194801,2.629644 -0.584335,3.834915 -0.389579,1.20531 -0.998633,2.352922 -1.827164,3.442841 -0.828572,1.08995 -1.908664,2.304167 -3.24028,3.642654 -1.33165,1.338512 -4.288114,3.756417 -8.8694,7.253724 l 15.490723,0 0,4.498901 z"
       id="path3764"
       style="font-weight:bold;fill:#ffffff" />
    <path
       d="m 61.514371,52.961876 c -2.4e-5,3.226325 -0.946678,5.797352 -2.839966,7.713089 -1.893329,1.915741 -4.691178,2.873611 -8.393555,2.873611 -2.394113,0 -4.420631,-0.446777 -6.079559,-1.340332 -1.65894,-0.893553 -2.895816,-2.093808 -3.710632,-3.600769 l 3.923492,-2.465057 c 0.642693,0.877997 1.427528,1.60378 2.354508,2.177353 0.926961,0.573582 2.068852,0.86037 3.425674,0.860367 2.08098,3e-6 3.637374,-0.549312 4.66919,-1.64795 1.031781,-1.098626 1.54768,-2.622062 1.547699,-4.570312 -1.9e-5,-1.667164 -0.529422,-2.983691 -1.588212,-3.949585 -1.058823,-0.965867 -2.587523,-1.448807 -4.586105,-1.448822 -2.032481,1.5e-5 -3.83149,0.51683 -5.397034,1.550445 l -2.58316,0 1.656189,-16.885986 16.54541,0 0,4.476929 -12.393951,0 -0.87616,7.653351 c 0.166617,-0.308514 0.704717,-0.554562 1.614304,-0.738144 0.909564,-0.183544 1.782748,-0.275325 2.619552,-0.275345 3.18785,2e-5 5.666867,0.820789 7.437058,2.462311 1.770149,1.641556 2.655234,4.026502 2.655258,7.154846 z"
       id="path3766"
       style="font-weight:bold;fill:#ffffff" />
    <path
       d="m 77.786496,63.548576 c -3.793039,0 -6.556098,-1.318816 -8.289184,-3.956451 -1.733097,-2.637628 -2.599643,-6.456289 -2.59964,-11.455994 -3e-6,-5.200175 1.07185,-9.255499 3.215561,-12.165985 2.143699,-2.910431 5.132206,-4.365661 8.96553,-4.365692 1.752303,3.1e-5 3.278485,0.253174 4.578552,0.75943 1.300028,0.506317 2.534616,1.340361 3.703766,2.502136 l -2.918243,3.562317 c -1.082173,-0.87705 -1.993808,-1.512654 -2.734909,-1.906814 -0.741136,-0.394108 -1.617524,-0.591175 -2.629166,-0.591202 -4.06953,2.7e-5 -6.364297,3.103661 -6.884308,9.310913 0.326835,-0.545636 1.143485,-1.066342 2.449951,-1.562119 1.306446,-0.495738 2.720019,-0.743617 4.240723,-0.743637 2.871992,2e-5 5.178432,0.817356 6.919327,2.452011 1.740852,1.63469 2.611288,4.109129 2.611313,7.423325 -2.5e-5,3.44422 -0.943703,6.094898 -2.83104,7.952042 -1.887379,1.857147 -4.486787,2.78572 -7.798233,2.78572 z m 0.171662,-4.325866 c 1.827377,3e-6 3.198377,-0.526195 4.113006,-1.578598 0.914593,-1.052393 1.371899,-2.613136 1.371918,-4.682236 -1.9e-5,-3.771043 -1.857165,-5.65657 -5.571442,-5.656586 -1.052869,1.6e-5 -2.124035,0.190674 -3.213501,0.571976 -1.089487,0.381332 -1.925362,0.753264 -2.507629,1.115799 -8e-6,3.603526 0.47927,6.209343 1.437836,7.817459 0.958546,1.608128 2.415149,2.412189 4.369812,2.412186 z"
       id="path3768"
       style="font-weight:bold;fill:#ffffff" />
  </g>
</svg>
