<?xml version="1.0" encoding="UTF-8" standalone="no"?>
<!-- Created with Inkscape (http://www.inkscape.org/) -->

<svg
   xmlns:dc="http://purl.org/dc/elements/1.1/"
   xmlns:cc="http://creativecommons.org/ns#"
   xmlns:rdf="http://www.w3.org/1999/02/22-rdf-syntax-ns#"
   xmlns:svg="http://www.w3.org/2000/svg"
   xmlns="http://www.w3.org/2000/svg"
   version="1.2"
   width="100"
   height="100"
   id="svg2">
  <metadata
     id="metadata17">
    <rdf:RDF>
      <cc:Work
         rdf:about="">
        <dc:format>image/svg+xml</dc:format>
        <dc:type
           rdf:resource="http://purl.org/dc/dcmitype/StillImage" />
        <dc:title></dc:title>
      </cc:Work>
    </rdf:RDF>
  </metadata>
  <defs
     id="defs15" />
  <g
     id="g4">
    <title
       id="title6">Layer 1</title>
  </g>
  <g
     id="g8">
    <title
       id="title10">Layer 2</title>
    <path
       d="m 6,0 88,0 c 3.324,0 6,2.676 6,6 l 0,88 c 0,3.324 -2.676,6 -6,6 L 6,100 C 2.676,100 0,97.324 0,94 L 0,6 C 0,2.676 2.676,0 6,0 z"
       id="svg_10"
       style="fill:#f67c5f" />
  </g>
  <g
     id="text2990"
     style="font-size:55px;font-style:normal;font-variant:normal;font-weight:normal;font-stretch:normal;line-height:125%;letter-spacing:0px;word-spacing:0px;fill:#ffffff;fill-opacity:1;stroke:none;font-family:Clear Sans;-inkscape-font-specification:Clear Sans">
    <path
       d="m 46.571255,54.604958 c -2.8e-5,3.898526 -1.193137,6.823531 -3.579331,8.775024 -2.386242,1.951498 -5.726108,2.927245 -10.019607,2.927246 -2.577018,-10e-7 -4.93694,-0.510254 -7.079773,-1.530762 -2.142848,-1.020506 -3.736271,-2.526089 -4.780274,-4.516754 l 4.822235,-2.952423 c 0.814608,1.101081 1.797349,1.986472 2.948227,2.656174 1.150858,0.669713 2.496707,1.004567 4.037552,1.004562 2.571394,5e-6 4.436729,-0.531789 5.596009,-1.595382 1.159239,-1.063582 1.738869,-2.766944 1.738891,-5.110093 -2.2e-5,-3.976832 -2.585417,-5.965253 -7.756195,-5.965271 l -3.276367,0 0,-5.28717 2.855072,0 c 2.36886,2.2e-5 4.218529,-0.493167 5.549011,-1.479569 1.330444,-0.986354 1.995676,-2.385914 1.995697,-4.198684 -2.1e-5,-1.615774 -0.529297,-2.807764 -1.587829,-3.575974 -1.058572,-0.768145 -2.491422,-1.152234 -4.298554,-1.152267 -3.113008,3.3e-5 -5.590423,1.342805 -7.432251,4.02832 l -4.84909,-2.935638 c 1.190588,-2.300585 2.862899,-3.947718 5.016937,-4.941407 2.154022,-0.993614 4.681231,-1.49044 7.581634,-1.490478 2.420331,3.8e-5 4.534358,0.382169 6.342087,1.146393 1.807685,0.764298 3.179271,1.852503 4.114762,3.264618 0.935438,1.412182 1.40317,3.052043 1.403198,4.919586 -2.8e-5,2.560248 -0.643999,4.592589 -1.931916,6.09703 -1.287967,1.504488 -3.083925,2.312669 -5.387878,2.424546 2.091347,0.01792 3.943813,0.852401 5.557404,2.503433 1.613538,1.651068 2.420321,3.979379 2.420349,6.98494 z"
       id="path3763"
       style="font-weight:bold;fill:#ffffff" />
    <path
       d="m 54.099178,65.543526 0,-5.90149 c 4.372958,-3.712759 7.537424,-6.498451 9.493409,-8.357086 1.955958,-1.858606 3.545184,-3.479444 4.767684,-4.862518 1.222465,-1.383036 2.170518,-2.73504 2.844162,-4.056015 0.673604,-1.320929 1.010416,-2.744547 1.010437,-4.270859 -2.1e-5,-1.650463 -0.541886,-2.969737 -1.625595,-3.957825 -1.083749,-0.988025 -2.530865,-1.482053 -4.341354,-1.482086 -1.744501,3.3e-5 -3.167279,0.383562 -4.268341,1.150589 -1.101085,0.767091 -2.150685,1.875717 -3.148804,3.325882 l -4.837341,-2.9776 c 1.360672,-2.547879 3.082498,-4.333206 5.165481,-5.355987 2.082967,-1.022708 4.516462,-1.534081 7.300492,-1.534119 3.674703,3.8e-5 6.605304,0.925432 8.791809,2.776184 2.186456,1.850823 3.279696,4.447968 3.279724,7.791443 -2.8e-5,1.651637 -0.23809,3.214009 -0.714188,4.687118 -0.476152,1.473156 -1.220551,2.875794 -2.2332,4.207917 -1.012699,1.33216 -2.332812,2.816203 -3.960342,4.452133 -1.627573,1.635958 -5.241029,4.591176 -10.840378,8.865661 l 18.933106,0 0,5.498658 z"
       id="path3765"
       style="font-weight:bold;fill:#ffffff" />
  </g>
</svg>
