<?xml version="1.0" encoding="UTF-8" standalone="no"?>
<!-- Created with Inkscape (http://www.inkscape.org/) -->

<svg
   xmlns:dc="http://purl.org/dc/elements/1.1/"
   xmlns:cc="http://creativecommons.org/ns#"
   xmlns:rdf="http://www.w3.org/1999/02/22-rdf-syntax-ns#"
   xmlns:svg="http://www.w3.org/2000/svg"
   xmlns="http://www.w3.org/2000/svg"
   version="1.2"
   width="100"
   height="100"
   id="svg2">
  <metadata
     id="metadata17">
    <rdf:RDF>
      <cc:Work
         rdf:about="">
        <dc:format>image/svg+xml</dc:format>
        <dc:type
           rdf:resource="http://purl.org/dc/dcmitype/StillImage" />
        <dc:title></dc:title>
      </cc:Work>
    </rdf:RDF>
  </metadata>
  <defs
     id="defs15" />
  <g
     id="g4">
    <title
       id="title6">Layer 1</title>
  </g>
  <g
     id="g8">
    <title
       id="title10">Layer 2</title>
    <path
       d="m 6,0 88,0 c 3.324,0 6,2.676 6,6 l 0,88 c 0,3.324 -2.676,6 -6,6 L 6,100 C 2.676,100 0,97.324 0,94 L 0,6 C 0,2.676 2.676,0 6,0 z"
       id="svg_10"
       style="fill:#edc22e" />
  </g>
  <flowRoot
     transform="translate(1.4981076,29.812341)"
     id="flowRoot2991"
     xml:space="preserve"
     style="font-size:40px;font-style:normal;font-weight:normal;line-height:125%;letter-spacing:0px;word-spacing:0px;fill:#000000;fill-opacity:1;stroke:none;font-family:Sans"><flowRegion
       id="flowRegion2993"><rect
         width="102.54237"
         height="103.81356"
         x="-1.059322"
         y="-1.4830509"
         id="rect2995" /></flowRegion><flowPara
       id="flowPara2997" /></flowRoot>  <g
     id="text2996"
     style="font-size:55px;font-style:normal;font-variant:normal;font-weight:normal;font-stretch:normal;line-height:125%;letter-spacing:0px;word-spacing:0px;fill:#ffffff;fill-opacity:1;stroke:none;font-family:Clear Sans;-inkscape-font-specification:Clear Sans">
    <path
       d="m 25.644114,53.706326 0,5.246582 -3.041993,0 0,-5.246582 -12.167968,0 0,-3.041993 12.304687,-15.363769 2.905274,0 0,15.671387 3.26416,0 0,2.734375 z m -3.041993,-13.894043 -9.057617,11.159668 9.057617,0 z"
       id="path3769"
       style="font-size:35px;fill:#ffffff" />
    <path
       d="m 50.373117,47.160915 c -1.9e-5,4.226896 -0.706399,7.337244 -2.11914,9.331055 -1.412777,1.993816 -3.600274,2.990722 -6.5625,2.990723 -2.962248,-10e-7 -5.144049,-0.991211 -6.54541,-2.973633 -1.40137,-1.982418 -2.102053,-5.087069 -2.102051,-9.313965 -2e-6,-4.226872 0.700681,-7.331524 2.102051,-9.313965 1.401361,-1.982399 3.583162,-2.973609 6.54541,-2.973633 2.985012,2.4e-5 5.178207,0.985538 6.57959,2.956543 1.401348,1.971048 2.102031,5.070003 2.10205,9.296875 z m -3.332519,0 c -1.6e-5,-3.292628 -0.43011,-5.702293 -1.290283,-7.229004 -0.860203,-1.526672 -2.213148,-2.290017 -4.058838,-2.290039 -1.822926,2.2e-5 -3.167326,0.769064 -4.033203,2.307129 -0.865892,1.538104 -1.298834,3.953466 -1.298828,7.246094 -6e-6,3.292652 0.432936,5.708014 1.298828,7.246094 0.865877,1.538089 2.210277,2.307131 4.033203,2.307129 1.84569,2e-6 3.198635,-0.76904 4.058838,-2.307129 0.860173,-1.53808 1.290267,-3.964835 1.290283,-7.280274 z"
       id="path3771"
       style="font-size:35px;fill:#ffffff" />
    <path
       d="m 56.850168,54.714626 c 0.672196,0.660811 1.358637,1.159264 2.059326,1.495362 0.700677,0.336102 1.495354,0.504152 2.384034,0.50415 1.800119,2e-6 3.190092,-0.646563 4.169921,-1.939697 0.979804,-1.293126 1.583645,-3.341057 1.811524,-6.143799 -0.672215,0.467132 -1.50392,0.885833 -2.495117,1.256103 -0.991222,0.370289 -2.050792,0.555429 -3.178711,0.55542 -2.187507,9e-6 -3.933518,-0.60668 -5.238037,-1.820068 -1.304528,-1.213367 -1.956789,-3.101793 -1.956787,-5.665283 -2e-6,-2.609031 0.709225,-4.619934 2.127685,-6.032715 1.418452,-1.412737 3.36954,-2.119117 5.853272,-2.119141 2.962226,2.4e-5 5.08991,0.985538 6.383056,2.956543 1.293114,1.971048 1.939679,4.825049 1.939698,8.562012 -1.9e-5,2.814137 -0.347512,5.186775 -1.042481,7.11792 -0.695003,1.931156 -1.743179,3.415122 -3.144531,4.451904 -1.40138,1.036784 -3.144542,1.555176 -5.229492,1.555176 -2.597663,0 -4.722498,-0.769043 -6.374512,-2.307129 z m 5.53711,-7.023925 c 0.877267,1.1e-5 1.765938,-0.159494 2.666015,-0.478516 0.900052,-0.318998 1.652004,-0.666492 2.25586,-1.042481 -1.5e-5,-2.153305 -0.162369,-3.793928 -0.487061,-4.921875 -0.324721,-1.12791 -0.837416,-2.027975 -1.538086,-2.700195 -0.700696,-0.672179 -1.666271,-1.008279 -2.896728,-1.008301 -1.572274,2.2e-5 -2.77141,0.458599 -3.597413,1.375733 -0.826014,0.917174 -1.239018,2.230242 -1.239013,3.939209 -5e-6,3.224296 1.612135,4.836437 4.836426,4.836426 z"
       id="path3773"
       style="font-size:35px;fill:#ffffff" />
    <path
       d="m 83.168528,59.448513 c -2.859708,0 -4.950364,-1.005452 -6.271973,-3.016357 -1.321617,-2.010901 -1.982424,-4.964593 -1.982422,-8.861084 -2e-6,-4.055975 0.82031,-7.197654 2.460938,-9.425049 1.640618,-2.227353 3.913565,-3.341041 6.818847,-3.341065 1.344389,2.4e-5 2.506497,0.190861 3.486328,0.57251 0.979802,0.381696 1.879866,0.948509 2.700196,1.70044 l -1.965332,2.443847 c -0.672216,-0.649394 -1.324478,-1.14215 -1.956787,-1.478271 -0.632338,-0.336079 -1.387138,-0.504129 -2.264405,-0.504151 -3.463549,2.2e-5 -5.41179,2.694518 -5.844726,8.083496 0.649408,-0.467108 1.469719,-0.888657 2.460937,-1.264648 0.991202,-0.375962 2.067861,-0.56395 3.229981,-0.563965 2.176093,1.5e-5 3.916407,0.612401 5.220947,1.837158 1.304507,1.224785 1.956769,3.107514 1.956787,5.648194 -1.8e-5,2.643234 -0.712095,4.66553 -2.13623,6.066894 -1.424169,1.401368 -3.395196,2.102051 -5.913086,2.102051 z m 0.136718,-2.734375 c 1.572254,2e-6 2.7543,-0.455726 3.546143,-1.367187 0.791815,-0.911454 1.187729,-2.227371 1.187744,-3.947754 -1.5e-5,-3.224273 -1.600762,-4.836414 -4.802246,-4.836426 -0.888681,1.2e-5 -1.780201,0.156669 -2.674561,0.469971 -0.894375,0.313325 -1.643479,0.65797 -2.247314,1.033935 -6e-6,3.030607 0.407302,5.229498 1.221924,6.59668 0.814608,1.36719 2.07071,2.050783 3.76831,2.050781 z"
       id="path3775"
       style="font-size:35px;fill:#ffffff" />
  </g>
</svg>
