<?xml version="1.0" encoding="UTF-8" standalone="no"?>
<!-- Created with Inkscape (http://www.inkscape.org/) -->

<svg
   xmlns:dc="http://purl.org/dc/elements/1.1/"
   xmlns:cc="http://creativecommons.org/ns#"
   xmlns:rdf="http://www.w3.org/1999/02/22-rdf-syntax-ns#"
   xmlns:svg="http://www.w3.org/2000/svg"
   xmlns="http://www.w3.org/2000/svg"
   version="1.2"
   width="100"
   height="100"
   id="svg2">
  <metadata
     id="metadata17">
    <rdf:RDF>
      <cc:Work
         rdf:about="">
        <dc:format>image/svg+xml</dc:format>
        <dc:type
           rdf:resource="http://purl.org/dc/dcmitype/StillImage" />
        <dc:title></dc:title>
      </cc:Work>
    </rdf:RDF>
  </metadata>
  <defs
     id="defs15" />
  <g
     id="g4">
    <title
       id="title6">Layer 1</title>
  </g>
  <g
     id="g8">
    <title
       id="title10">Layer 2</title>
    <path
       d="m 6,0 88,0 c 3.324,0 6,2.676 6,6 l 0,88 c 0,3.324 -2.676,6 -6,6 L 6,100 C 2.676,100 0,97.324 0,94 L 0,6 C 0,2.676 2.676,0 6,0 z"
       id="svg_10"
       style="fill:#edc850" />
  </g>
  <g
     id="text2991"
     style="font-size:45px;font-style:normal;font-variant:normal;font-weight:normal;font-stretch:normal;line-height:125%;letter-spacing:0px;word-spacing:0px;fill:#ffffff;fill-opacity:1;stroke:none;font-family:Clear Sans;-inkscape-font-specification:Clear Sans">
    <path
       d="m 34.244932,54.083565 c -2.3e-5,3.226325 -0.946678,5.797352 -2.839966,7.713089 -1.893329,1.915741 -4.691178,2.873611 -8.393554,2.873611 -2.394114,0 -4.420632,-0.446777 -6.07956,-1.340332 -1.65894,-0.893553 -2.895816,-2.093808 -3.710632,-3.600769 l 3.923492,-2.465057 c 0.642694,0.877996 1.427529,1.60378 2.354508,2.177353 0.926962,0.573582 2.068852,0.86037 3.425674,0.860366 2.08098,4e-6 3.637375,-0.549312 4.66919,-1.647949 1.031781,-1.098626 1.54768,-2.622062 1.547699,-4.570312 -1.9e-5,-1.667164 -0.529422,-2.983691 -1.588211,-3.949585 -1.058823,-0.965867 -2.587524,-1.448807 -4.586106,-1.448822 -2.03248,1.5e-5 -3.83149,0.51683 -5.397033,1.550445 l -2.583161,0 1.656189,-16.885986 16.54541,0 0,4.476929 -12.393951,0 -0.87616,7.653351 c 0.166617,-0.308514 0.704718,-0.554562 1.614304,-0.738144 0.909565,-0.183544 1.782748,-0.275326 2.619553,-0.275345 3.187849,1.9e-5 5.666866,0.820789 7.437057,2.462311 1.77015,1.641556 2.655235,4.026502 2.655258,7.154846 z"
       id="path3764"
       style="font-weight:bold;fill:#ffffff" />
    <path
       d="m 50.249266,64.045418 0,-21.30661 -7.218018,0 0,-3.625489 c 2.202751,-0.129064 3.769445,-0.354283 4.700089,-0.675659 0.930621,-0.321324 1.653658,-0.806095 2.169113,-1.454315 0.515428,-0.648166 1.010728,-1.859407 1.485901,-3.633728 l 3.728485,0 0,30.695801 z"
       id="path3766"
       style="font-weight:bold;fill:#ffffff" />
    <path
       d="m 67.834257,64.045418 0,-4.828491 c 3.577874,-3.037712 6.166983,-5.316915 7.767334,-6.837616 1.60033,-1.520678 2.900606,-2.846818 3.900833,-3.978424 1.000198,-1.131575 1.775878,-2.23776 2.327042,-3.318558 0.55113,-1.08076 0.826703,-2.245539 0.826721,-3.494339 -1.8e-5,-1.350379 -0.443361,-2.429785 -1.330032,-3.23822 -0.886704,-0.808385 -2.070709,-1.212589 -3.552018,-1.212616 -1.427318,2.7e-5 -2.59141,0.313823 -3.492279,0.941391 -0.900887,0.627619 -1.759651,1.534677 -2.576294,2.721176 L 67.74774,38.363503 c 1.113277,-2.084628 2.522043,-3.545351 4.226303,-4.382172 1.704245,-0.836761 3.695286,-1.255157 5.973129,-1.255188 3.006576,3.1e-5 5.40434,0.757172 7.193299,2.271423 1.788918,1.51431 2.683387,3.639247 2.68341,6.374817 -2.3e-5,1.35134 -0.194801,2.629644 -0.584335,3.834915 -0.389579,1.20531 -0.998633,2.352922 -1.827164,3.442841 -0.828572,1.089949 -1.908664,2.304166 -3.24028,3.642654 -1.331651,1.338512 -4.288114,3.756417 -8.8694,7.253723 l 15.490723,0 0,4.498902 z"
       id="path3768"
       style="font-weight:bold;fill:#ffffff" />
  </g>
</svg>
