<?xml version="1.0" encoding="UTF-8" standalone="no"?>
<!-- Created with Inkscape (http://www.inkscape.org/) -->

<svg
   xmlns:dc="http://purl.org/dc/elements/1.1/"
   xmlns:cc="http://creativecommons.org/ns#"
   xmlns:rdf="http://www.w3.org/1999/02/22-rdf-syntax-ns#"
   xmlns:svg="http://www.w3.org/2000/svg"
   xmlns="http://www.w3.org/2000/svg"
   version="1.2"
   width="100"
   height="100"
   id="svg2">
  <metadata
     id="metadata17">
    <rdf:RDF>
      <cc:Work
         rdf:about="">
        <dc:format>image/svg+xml</dc:format>
        <dc:type
           rdf:resource="http://purl.org/dc/dcmitype/StillImage" />
        <dc:title></dc:title>
      </cc:Work>
    </rdf:RDF>
  </metadata>
  <defs
     id="defs15" />
  <g
     id="g4">
    <title
       id="title6">Layer 1</title>
  </g>
  <g
     id="g8">
    <title
       id="title10">Layer 2</title>
    <path
       d="m 6,0 88,0 c 3.324,0 6,2.676 6,6 l 0,88 c 0,3.324 -2.676,6 -6,6 L 6,100 C 2.676,100 0,97.324 0,94 L 0,6 C 0,2.676 2.676,0 6,0 z"
       id="svg_10"
       style="fill:#f65e3b" />
  </g>
  <g
     id="text2990"
     style="font-size:55px;font-style:normal;font-variant:normal;font-weight:normal;font-stretch:normal;line-height:125%;letter-spacing:0px;word-spacing:0px;fill:#ffffff;fill-opacity:1;stroke:none;font-family:Clear Sans;-inkscape-font-specification:Clear Sans">
    <path
       d="m 34.132751,66.441666 c -4.635937,-10e-7 -8.013009,-1.611887 -10.131225,-4.835663 -2.11823,-3.223768 -3.177341,-7.89102 -3.177338,-14.00177 -3e-6,-6.35577 1.310039,-11.312278 3.93013,-14.869538 2.620077,-3.557194 6.272697,-5.335807 10.957871,-5.335846 2.141703,3.9e-5 4.007037,0.309436 5.596008,0.928193 1.588923,0.618831 3.097863,1.638219 4.526825,3.058166 L 42.26828,35.739151 C 40.945625,34.667201 39.831404,33.890352 38.925613,33.4086 38.01978,32.926913 36.94864,32.686053 35.712189,32.68602 c -4.97387,3.3e-5 -7.778585,3.793364 -8.414154,11.380005 0.399465,-0.666889 1.397592,-1.303307 2.994384,-1.909256 1.596768,-0.605903 3.324468,-0.908866 5.183106,-0.90889 3.510212,2.4e-5 6.329194,0.998991 8.456955,2.996902 2.127708,1.997955 3.191575,5.022269 3.191604,9.072953 -2.9e-5,4.209603 -1.153414,7.44932 -3.460159,9.719162 -2.306796,2.269847 -5.483851,3.404769 -9.531174,3.40477 z m 0.209809,-5.287171 c 2.233461,5e-6 3.909128,-0.643127 5.027008,-1.929397 1.117836,-1.286258 1.676765,-3.193833 1.676788,-5.722733 -2.3e-5,-4.609053 -2.269868,-6.913586 -6.80954,-6.913605 -1.28684,1.9e-5 -2.596042,0.233046 -3.927612,0.699082 -1.331595,0.466072 -2.353221,0.920656 -3.06488,1.363754 -10e-6,4.40431 0.585774,7.589197 1.757354,9.554672 1.171558,1.96549 2.95185,2.948232 5.340882,2.948227 z"
       id="path3763"
       style="font-weight:bold;fill:#ffffff" />
    <path
       d="m 75.950073,57.594467 0,8.083496 -5.86792,0 0,-8.083496 -18.748474,0 0,-5.397949 19.248657,-24.035645 5.367737,0 0,24.146424 5.030365,0 0,5.28717 z m -5.86792,-21.407165 -12.773132,16.119995 12.773132,0 z"
       id="path3765"
       style="font-weight:bold;fill:#ffffff" />
  </g>
</svg>
