<?xml version="1.0" encoding="UTF-8" standalone="no"?>
<!-- Created with Inkscape (http://www.inkscape.org/) -->

<svg
   xmlns:dc="http://purl.org/dc/elements/1.1/"
   xmlns:cc="http://creativecommons.org/ns#"
   xmlns:rdf="http://www.w3.org/1999/02/22-rdf-syntax-ns#"
   xmlns:svg="http://www.w3.org/2000/svg"
   xmlns="http://www.w3.org/2000/svg"
   version="1.2"
   width="100"
   height="100"
   id="svg2">
  <metadata
     id="metadata17">
    <rdf:RDF>
      <cc:Work
         rdf:about="">
        <dc:format>image/svg+xml</dc:format>
        <dc:type
           rdf:resource="http://purl.org/dc/dcmitype/StillImage" />
        <dc:title></dc:title>
      </cc:Work>
    </rdf:RDF>
  </metadata>
  <defs
     id="defs15" />
  <g
     id="g4">
    <title
       id="title6">Layer 1</title>
  </g>
  <g
     id="g8">
    <title
       id="title10">Layer 2</title>
    <path
       d="m 6,0 88,0 c 3.324,0 6,2.676 6,6 l 0,88 c 0,3.324 -2.676,6 -6,6 L 6,100 C 2.676,100 0,97.324 0,94 L 0,6 C 0,2.676 2.676,0 6,0 z"
       id="svg_10"
       style="fill:#f2b179" />
  </g>
  <g
     id="text2989"
     style="font-size:55px;font-style:normal;font-variant:normal;font-weight:normal;font-stretch:normal;line-height:125%;letter-spacing:0px;word-spacing:0px;fill:#ffffff;fill-opacity:1;stroke:none;font-family:Clear Sans;-inkscape-font-specification:Clear Sans">
    <path
       d="m 63.279488,55.342888 c -3e-5,3.576259 -1.21412,6.249495 -3.642273,8.019714 -2.428206,1.770223 -5.650299,2.655334 -9.666291,2.655335 -4.367382,-10e-7 -7.686267,-0.912806 -9.956665,-2.738419 -2.27041,-1.825608 -3.405612,-4.471149 -3.405609,-7.93663 -3e-6,-4.92125 2.624557,-8.26699 7.873688,-10.037232 -1.872059,-0.663533 -3.244764,-1.380797 -4.118118,-2.151794 -0.873368,-0.770953 -1.577205,-1.671449 -2.111512,-2.701492 -0.534316,-1.029994 -0.801471,-2.23653 -0.801467,-3.619614 -4e-6,-3.108489 1.070857,-5.528556 3.212585,-7.260208 2.141715,-1.731581 5.244078,-2.597389 9.307098,-2.597427 3.983541,3.8e-5 7.057091,0.838991 9.220658,2.516861 2.163516,1.677941 3.245287,4.107519 3.245315,7.288742 -2.8e-5,1.337205 -0.28313,2.548218 -0.849304,3.633041 -0.56623,1.084873 -1.306993,2.029849 -2.22229,2.83493 -0.915349,0.805126 -2.252526,1.505885 -4.011536,2.10228 2.639645,0.941079 4.620513,2.243848 5.942612,3.90831 1.322044,1.664494 1.983079,3.692359 1.983109,6.083603 z M 56.384346,36.884789 c -2.3e-5,-1.492687 -0.525942,-2.693349 -1.577759,-3.60199 -1.051859,-0.908577 -2.663745,-1.362882 -4.835663,-1.362915 -2.315179,3.3e-5 -3.971544,0.45154 -4.969101,1.354522 -0.997579,0.903047 -1.496363,2.053914 -1.496353,3.452607 -1e-5,0.853807 0.194692,1.565197 0.584107,2.13417 0.389393,0.569026 1.037001,1.160965 1.942825,1.775818 0.905799,0.614902 2.221436,1.344195 3.946915,2.187882 1.974977,-0.842568 3.53623,-1.731595 4.683761,-2.667084 1.14749,-0.93544 1.721245,-2.026442 1.721268,-3.27301 z m 0.867767,18.458099 c -2.3e-5,-0.994761 -0.224938,-1.886305 -0.674743,-2.674637 -0.449852,-0.788306 -1.147814,-1.534104 -2.093888,-2.237396 -0.946115,-0.703262 -2.455335,-1.546131 -4.527664,-2.52861 -2.02984,0.88289 -3.503812,1.666453 -4.421921,2.350692 -0.918132,0.68427 -1.63064,1.444894 -2.137527,2.281876 -0.506906,0.837007 -0.760354,1.790935 -0.760346,2.861786 -8e-6,1.713163 0.583818,3.074398 1.751481,4.08371 1.167641,1.009322 3.028779,1.513981 5.583419,1.513977 2.571393,4e-6 4.427775,-0.522838 5.569153,-1.568528 1.141335,-1.045678 1.712013,-2.406633 1.712036,-4.08287 z"
       id="path3762"
       style="font-weight:bold;fill:#ffffff" />
  </g>
</svg>
