<?xml version="1.0" encoding="UTF-8" standalone="no"?>
<!-- Created with Inkscape (http://www.inkscape.org/) -->

<svg
   xmlns:dc="http://purl.org/dc/elements/1.1/"
   xmlns:cc="http://creativecommons.org/ns#"
   xmlns:rdf="http://www.w3.org/1999/02/22-rdf-syntax-ns#"
   xmlns:svg="http://www.w3.org/2000/svg"
   xmlns="http://www.w3.org/2000/svg"
   version="1.2"
   width="100"
   height="100"
   id="svg2">
  <metadata
     id="metadata17">
    <rdf:RDF>
      <cc:Work
         rdf:about="">
        <dc:format>image/svg+xml</dc:format>
        <dc:type
           rdf:resource="http://purl.org/dc/dcmitype/StillImage" />
        <dc:title></dc:title>
      </cc:Work>
    </rdf:RDF>
  </metadata>
  <defs
     id="defs15" />
  <g
     id="g4">
    <title
       id="title6">Layer 1</title>
  </g>
  <g
     id="g8">
    <title
       id="title10">Layer 2</title>
    <path
       d="m 6,0 88,0 c 3.324,0 6,2.676 6,6 l 0,88 c 0,3.324 -2.676,6 -6,6 L 6,100 C 2.676,100 0,97.324 0,94 L 0,6 C 0,2.676 2.676,0 6,0 z"
       id="svg_10"
       style="fill:#edc22e" />
  </g>
  <flowRoot
     transform="translate(1.4981076,29.812341)"
     id="flowRoot2991"
     xml:space="preserve"
     style="font-size:40px;font-style:normal;font-weight:normal;line-height:125%;letter-spacing:0px;word-spacing:0px;fill:#000000;fill-opacity:1;stroke:none;font-family:Sans"><flowRegion
       id="flowRegion2993"><rect
         width="102.54237"
         height="103.81356"
         x="-1.059322"
         y="-1.4830509"
         id="rect2995" /></flowRegion><flowPara
       id="flowPara2997" /></flowRoot>  <g
     id="text2996"
     style="font-size:55px;font-style:normal;font-variant:normal;font-weight:normal;font-stretch:normal;line-height:125%;letter-spacing:0px;word-spacing:0px;fill:#ffffff;fill-opacity:1;stroke:none;font-family:Clear Sans;-inkscape-font-specification:Clear Sans">
    <path
       d="m 28.397569,53.661777 c -1.9e-5,2.210291 -0.746275,3.859459 -2.23877,4.94751 -1.492528,1.088054 -3.497734,1.63208 -6.015625,1.63208 -2.734382,0 -4.799403,-0.561116 -6.195068,-1.683349 -1.395673,-1.122231 -2.093508,-2.754309 -2.093506,-4.896241 -2e-6,-3.041983 1.703284,-5.200997 5.109863,-6.47705 -1.32162,-0.649401 -2.250167,-1.210517 -2.785644,-1.68335 -0.535486,-0.472804 -0.96558,-1.022527 -1.290284,-1.64917 -0.324709,-0.626611 -0.487062,-1.361473 -0.48706,-2.20459 -2e-6,-1.914042 0.655108,-3.400857 1.965332,-4.460449 1.310216,-1.059547 3.235669,-1.589331 5.776367,-1.589355 2.495105,2.4e-5 4.403469,0.512719 5.725098,1.538086 1.321597,1.025412 1.982404,2.517923 1.982422,4.477539 -1.8e-5,0.820329 -0.170916,1.55804 -0.512696,2.213134 -0.341814,0.655126 -0.797542,1.233332 -1.367187,1.73462 -0.569677,0.501315 -1.475438,1.042493 -2.717285,1.623535 1.800115,0.786144 3.107487,1.691905 3.922119,2.717285 0.814598,1.025399 1.221905,2.278653 1.221924,3.759765 z m -3.708496,-11.97998 c -1.5e-5,-1.070944 -0.37884,-1.933981 -1.136475,-2.589111 -0.757663,-0.65509 -1.894136,-0.982645 -3.409424,-0.982666 -1.606454,2.1e-5 -2.77141,0.327576 -3.494873,0.982666 -0.723476,0.65513 -1.085211,1.483987 -1.085205,2.486572 -6e-6,0.615252 0.14241,1.130795 0.427246,1.546631 0.284825,0.415869 0.737705,0.83457 1.358643,1.256103 0.620923,0.421565 1.552318,0.922866 2.794189,1.503907 1.424142,-0.581041 2.537829,-1.199123 3.341065,-1.854248 0.803208,-0.655095 1.204819,-1.438378 1.204834,-2.349854 z m 0.563964,11.97998 c -1.5e-5,-0.706373 -0.15952,-1.338697 -0.478515,-1.896972 -0.319025,-0.55826 -0.800389,-1.076651 -1.444092,-1.555176 -0.64373,-0.478506 -1.706148,-1.053863 -3.187256,-1.726074 -1.458342,0.603852 -2.500821,1.139333 -3.127441,1.606445 -0.626634,0.467132 -1.119391,0.996916 -1.478272,1.589356 -0.358892,0.592455 -0.538335,1.264655 -0.53833,2.016601 -5e-6,1.207687 0.418696,2.173263 1.256104,2.896729 0.837395,0.723472 2.133373,1.085207 3.887939,1.085205 1.777332,2e-6 3.07331,-0.373126 3.88794,-1.119385 0.814601,-0.746253 1.221908,-1.711828 1.221923,-2.896729 z"
       id="path3769"
       style="font-size:35px;fill:#ffffff;fill-opacity:1" />
    <path
       d="m 40.787705,59.745762 0,-16.901856 -5.725097,0 0,-2.204589 c 1.549473,-0.09113 2.720126,-0.273419 3.511963,-0.546875 0.79182,-0.273418 1.409902,-0.68927 1.854248,-1.247559 0.444325,-0.558247 0.837391,-1.475401 1.179199,-2.751465 l 2.272949,0 0,23.652344 z"
       id="path3771"
       style="font-size:35px;fill:#ffffff;fill-opacity:1" />
    <path
       d="m 56.202744,55.507481 c 0.672196,0.66081 1.358637,1.159264 2.059327,1.495361 0.700676,0.336103 1.495353,0.504153 2.384033,0.50415 1.800119,3e-6 3.190092,-0.646563 4.169922,-1.939697 0.979804,-1.293126 1.583644,-3.341057 1.811523,-6.143799 -0.672214,0.467132 -1.503919,0.885833 -2.495117,1.256104 -0.991222,0.370288 -2.050791,0.555428 -3.178711,0.55542 -2.187507,8e-6 -3.933517,-0.606681 -5.238037,-1.820069 -1.304527,-1.213367 -1.956789,-3.101793 -1.956787,-5.665283 -2e-6,-2.609031 0.709226,-4.619934 2.127685,-6.032715 1.418452,-1.412737 3.369541,-2.119116 5.853272,-2.11914 2.962227,2.4e-5 5.08991,0.985537 6.383056,2.956543 1.293114,1.971047 1.93968,4.825049 1.939698,8.562011 -1.8e-5,2.814138 -0.347512,5.186775 -1.042481,7.11792 -0.695003,1.931156 -1.743179,3.415123 -3.144531,4.451905 -1.40138,1.036783 -3.144542,1.555175 -5.229492,1.555175 -2.597663,0 -4.722498,-0.769042 -6.374512,-2.307129 z m 5.53711,-7.023926 c 0.877268,1.1e-5 1.765939,-0.159494 2.666015,-0.478516 0.900052,-0.318998 1.652005,-0.666491 2.25586,-1.04248 -1.5e-5,-2.153306 -0.162368,-3.793929 -0.487061,-4.921875 -0.324721,-1.127911 -0.837416,-2.027975 -1.538086,-2.700196 -0.700695,-0.672179 -1.66627,-1.008279 -2.896728,-1.0083 -1.572274,2.1e-5 -2.77141,0.458598 -3.597412,1.375732 -0.826015,0.917174 -1.239019,2.230242 -1.239014,3.939209 -5e-6,3.224297 1.612135,4.836437 4.836426,4.836426 z"
       id="path3773"
       style="font-size:35px;fill:#ffffff;fill-opacity:1" />
    <path
       d="m 74.540147,59.745762 0,-3.33252 c 2.791336,-2.369786 4.813632,-4.149976 6.066894,-5.340576 1.253246,-1.190582 2.290029,-2.250152 3.110352,-3.178711 0.8203,-0.928535 1.455472,-1.834296 1.905517,-2.717285 0.450019,-0.88296 0.675035,-1.848535 0.675049,-2.896728 -1.4e-5,-1.173484 -0.387383,-2.113425 -1.162109,-2.819825 -0.774752,-0.706359 -1.805838,-1.059549 -3.093262,-1.05957 -1.219084,2.1e-5 -2.213142,0.267762 -2.982178,0.803223 -0.769049,0.535501 -1.42131,1.236184 -1.956787,2.10205 l -2.631836,-1.691894 c 0.82031,-1.412739 1.874182,-2.43528 3.161622,-3.067627 1.287428,-0.6323 2.802726,-0.948462 4.545898,-0.948486 2.290027,2.4e-5 4.104397,0.566836 5.443115,1.700439 1.338688,1.133648 2.008039,2.737243 2.008057,4.810791 -1.8e-5,1.048194 -0.148129,2.030859 -0.444336,2.947998 -0.296241,0.917169 -0.760514,1.791598 -1.392822,2.623291 -0.63234,0.831717 -1.481134,1.783051 -2.546387,2.854004 -1.065279,1.070972 -3.443613,3.184414 -7.13501,6.340332 l 12.287598,0 0,2.871094 z"
       id="path3775"
       style="font-size:35px;fill:#ffffff;fill-opacity:1" />
  </g>
</svg>
